<svg width="1536" height="969" viewBox="0 0 1536 969" fill="none" xmlns="http://www.w3.org/2000/svg" xmlns:xlink="http://www.w3.org/1999/xlink">
    <g clip-path="url(#clip0_13364_22886)">
        <rect width="1536" height="969" fill="#6000DA"/>
        <rect width="1536" height="969" fill="black" fill-opacity="0.8"/>
        <rect width="1536" height="969" fill="url(#paint0_linear_13364_22886)"/>
        <rect width="1536" height="969" fill="url(#pattern0)" fill-opacity="0.2" style="mix-blend-mode:overlay"/>
        <path d="M142 177C175.137 177 202 150.137 202 117C202 83.8629 175.137 57 142 57C108.863 57 82 83.8629 82 117C82 150.137 108.863 177 142 177Z" fill="white"/>
        <path d="M166.694 130.134C166.182 129.907 165.628 129.792 165.068 129.796C164.584 129.797 164.103 129.878 163.646 130.038C162.8 130.407 162.046 130.958 161.439 131.651C161.188 131.914 160.92 132.161 160.638 132.39C156.756 135.289 153.17 136.632 148.827 136.806V97.9576C152.675 98.4698 155.456 100.001 157.076 102.523C157.423 103.11 157.72 103.724 157.964 104.359C158.333 105.38 158.851 106.34 159.502 107.21C159.575 107.301 159.866 107.62 159.92 107.693C160.62 108.36 161.556 108.726 162.526 108.712C163.052 108.722 163.573 108.617 164.054 108.405C164.535 108.193 164.964 107.879 165.311 107.485C166.046 106.495 166.416 105.284 166.359 104.055C166.359 103.378 166.412 102.934 166.437 102.605C166.498 101.962 166.488 101.314 166.408 100.673C165.995 97.1508 165.005 96.4744 161.929 94.8753L160.958 94.368C156.266 91.8605 153.51 91.2856 148.856 90.672C149.317 83.5168 150.734 81.0094 152.229 79.4054C152.695 78.9312 153.255 78.5577 153.872 78.3084C154.49 78.059 155.153 77.939 155.819 77.956C156.056 77.9559 156.293 77.9704 156.528 77.9995C155.072 80.5118 155.446 83.1642 157.498 84.8986C158.678 85.7879 160.13 86.2452 161.608 86.1934C162.923 86.245 164.218 85.8666 165.296 85.116C167.941 83.0144 167.941 79.2701 166.422 77.0139C164.651 74.4766 161.96 72.7236 158.915 72.1246C156.12 71.5376 153.216 71.742 150.531 72.7146C147.847 73.6872 145.49 75.3892 143.727 77.6275L143.538 77.8594C142.271 79.3764 139.001 83.2946 138.719 90.6382C123.774 93.8559 115.559 103.016 115.559 116.534C115.559 124.796 118.596 139.241 138.724 144.242C138.724 144.517 138.724 144.792 138.724 145.058C138.632 147.904 138.569 149.962 136.914 153.112C136.467 153.866 135.827 154.489 135.061 154.918C134.294 155.348 133.427 155.568 132.547 155.557C132.221 155.559 131.896 155.529 131.577 155.465C131.958 154.653 132.133 153.76 132.086 152.866C132.063 152.107 131.866 151.364 131.508 150.693C131.15 150.023 130.643 149.444 130.024 149.001C129.984 148.972 129.941 148.946 129.898 148.923C128.865 148.322 127.697 147.989 126.501 147.957C125.072 147.978 123.705 148.539 122.675 149.525C121.646 150.512 121.031 151.851 120.955 153.271C120.933 154.214 121.1 155.152 121.446 156.031C121.792 156.909 122.309 157.71 122.968 158.388C124.017 159.611 125.327 160.585 126.802 161.24C128.276 161.896 129.879 162.215 131.494 162.176C132.799 162.161 134.099 162.021 135.376 161.755C140.971 160.383 145.052 156.851 147.507 151.257C148.352 149.324 148.643 146.063 148.735 144.329C151.796 144.009 154.787 143.213 157.6 141.971C163.501 139.27 165.364 137.367 166.82 135.84L167.203 135.444C168.606 133.994 168.538 132.685 168.232 131.811C167.962 131.071 167.409 130.469 166.694 130.134ZM138.753 117.486C138.753 123.863 138.753 130.216 138.753 136.473C132.445 134.642 128.131 127.24 128.131 117.824C128.131 110.118 130.029 100.668 138.807 98.1557C138.768 104.572 138.758 111.041 138.753 117.486Z" fill="#1D0031"/>
        <path d="M260.109 146.979C255.702 146.979 251.595 146.272 247.787 144.858C244.034 143.389 240.77 141.322 237.995 138.656C235.221 135.99 233.045 132.862 231.467 129.272C229.944 125.682 229.182 121.738 229.182 117.44C229.182 113.142 229.944 109.198 231.467 105.608C233.045 102.018 235.221 98.8896 237.995 96.224C240.824 93.5584 244.115 91.5184 247.869 90.104C251.622 88.6352 255.73 87.9008 260.19 87.9008C265.141 87.9008 269.602 88.7712 273.573 90.512C277.598 92.1984 280.971 94.7008 283.691 98.0192L275.205 105.853C273.246 103.622 271.07 101.963 268.677 100.875C266.283 99.7328 263.672 99.1616 260.843 99.1616C258.178 99.1616 255.73 99.5968 253.499 100.467C251.269 101.338 249.338 102.589 247.706 104.221C246.074 105.853 244.795 107.784 243.87 110.014C243 112.245 242.565 114.72 242.565 117.44C242.565 120.16 243 122.635 243.87 124.866C244.795 127.096 246.074 129.027 247.706 130.659C249.338 132.291 251.269 133.542 253.499 134.413C255.73 135.283 258.178 135.718 260.843 135.718C263.672 135.718 266.283 135.174 268.677 134.086C271.07 132.944 273.246 131.23 275.205 128.946L283.691 136.779C280.971 140.098 277.598 142.627 273.573 144.368C269.602 146.109 265.114 146.979 260.109 146.979ZM292.537 146V102.099H304.695V114.502L302.981 110.912C304.287 107.811 306.381 105.472 309.265 103.894C312.148 102.262 315.657 101.446 319.791 101.446V113.197C319.247 113.142 318.757 113.115 318.322 113.115C317.887 113.061 317.425 113.034 316.935 113.034C313.453 113.034 310.625 114.04 308.449 116.053C306.327 118.011 305.266 121.085 305.266 125.274V146H292.537ZM349.644 146.653C344.64 146.653 340.233 145.674 336.425 143.715C332.672 141.757 329.761 139.091 327.694 135.718C325.627 132.291 324.593 128.402 324.593 124.05C324.593 119.643 325.6 115.754 327.612 112.381C329.68 108.954 332.481 106.288 336.017 104.384C339.553 102.426 343.552 101.446 348.012 101.446C352.31 101.446 356.172 102.371 359.6 104.221C363.081 106.016 365.828 108.627 367.841 112.054C369.854 115.427 370.86 119.48 370.86 124.213C370.86 124.702 370.833 125.274 370.779 125.926C370.724 126.525 370.67 127.096 370.616 127.64H334.956V120.214H363.924L359.028 122.418C359.028 120.133 358.566 118.147 357.641 116.461C356.716 114.774 355.438 113.469 353.806 112.544C352.174 111.565 350.27 111.075 348.094 111.075C345.918 111.075 343.987 111.565 342.3 112.544C340.668 113.469 339.39 114.802 338.465 116.542C337.54 118.229 337.078 120.242 337.078 122.581V124.539C337.078 126.933 337.595 129.054 338.628 130.904C339.716 132.699 341.212 134.086 343.116 135.066C345.075 135.99 347.36 136.453 349.971 136.453C352.31 136.453 354.35 136.099 356.091 135.392C357.886 134.685 359.518 133.624 360.987 132.21L367.76 139.554C365.747 141.838 363.217 143.606 360.171 144.858C357.124 146.054 353.616 146.653 349.644 146.653ZM399.001 146.653C394.867 146.653 391.14 145.728 387.822 143.878C384.503 141.974 381.865 139.336 379.907 135.963C378.003 132.59 377.051 128.619 377.051 124.05C377.051 119.426 378.003 115.427 379.907 112.054C381.865 108.682 384.503 106.07 387.822 104.221C391.14 102.371 394.867 101.446 399.001 101.446C402.7 101.446 405.937 102.262 408.711 103.894C411.486 105.526 413.635 108.002 415.158 111.32C416.681 114.638 417.443 118.882 417.443 124.05C417.443 129.163 416.708 133.406 415.239 136.779C413.771 140.098 411.649 142.573 408.875 144.205C406.155 145.837 402.863 146.653 399.001 146.653ZM401.204 136.208C403.271 136.208 405.148 135.718 406.835 134.739C408.521 133.76 409.854 132.373 410.833 130.578C411.867 128.728 412.383 126.552 412.383 124.05C412.383 121.493 411.867 119.317 410.833 117.522C409.854 115.726 408.521 114.339 406.835 113.36C405.148 112.381 403.271 111.891 401.204 111.891C399.083 111.891 397.179 112.381 395.492 113.36C393.806 114.339 392.446 115.726 391.412 117.522C390.433 119.317 389.943 121.493 389.943 124.05C389.943 126.552 390.433 128.728 391.412 130.578C392.446 132.373 393.806 133.76 395.492 134.739C397.179 135.718 399.083 136.208 401.204 136.208ZM412.71 146V137.024L412.955 123.968L412.139 110.994V85.4528H424.868V146H412.71ZM437.466 146V102.099H450.195V146H437.466ZM443.831 95.9792C441.491 95.9792 439.587 95.2992 438.119 93.9392C436.65 92.5792 435.915 90.8928 435.915 88.88C435.915 86.8672 436.65 85.1808 438.119 83.8208C439.587 82.4608 441.491 81.7808 443.831 81.7808C446.17 81.7808 448.074 82.4336 449.543 83.7392C451.011 84.9904 451.746 86.6224 451.746 88.6352C451.746 90.7568 451.011 92.5248 449.543 93.9392C448.128 95.2992 446.224 95.9792 443.831 95.9792ZM480.778 146.653C475.61 146.653 471.584 145.347 468.701 142.736C465.818 140.07 464.376 136.126 464.376 130.904V92.3888H477.106V130.741C477.106 132.59 477.595 134.032 478.574 135.066C479.554 136.045 480.886 136.534 482.573 136.534C484.586 136.534 486.299 135.99 487.714 134.902L491.141 143.878C489.835 144.803 488.258 145.51 486.408 146C484.613 146.435 482.736 146.653 480.778 146.653ZM457.603 112.87V103.078H488.04V112.87H457.603ZM513.872 146.653C510.118 146.653 506.501 146.218 503.019 145.347C499.592 144.422 496.872 143.28 494.859 141.92L499.102 132.781C501.115 134.032 503.482 135.066 506.202 135.882C508.976 136.643 511.696 137.024 514.362 137.024C517.299 137.024 519.366 136.67 520.563 135.963C521.814 135.256 522.44 134.277 522.44 133.026C522.44 131.992 521.95 131.23 520.971 130.741C520.046 130.197 518.795 129.789 517.218 129.517C515.64 129.245 513.899 128.973 511.995 128.701C510.146 128.429 508.269 128.075 506.365 127.64C504.461 127.15 502.72 126.443 501.142 125.518C499.565 124.594 498.286 123.342 497.307 121.765C496.382 120.187 495.92 118.147 495.92 115.645C495.92 112.87 496.709 110.422 498.286 108.301C499.918 106.179 502.258 104.52 505.304 103.323C508.35 102.072 511.995 101.446 516.238 101.446C519.23 101.446 522.277 101.773 525.378 102.426C528.478 103.078 531.062 104.03 533.13 105.282L528.886 114.339C526.765 113.088 524.616 112.245 522.44 111.81C520.318 111.32 518.251 111.075 516.238 111.075C513.41 111.075 511.342 111.456 510.037 112.218C508.731 112.979 508.078 113.958 508.078 115.155C508.078 116.243 508.541 117.059 509.466 117.603C510.445 118.147 511.723 118.582 513.301 118.909C514.878 119.235 516.592 119.534 518.442 119.806C520.346 120.024 522.25 120.378 524.154 120.867C526.058 121.357 527.771 122.064 529.294 122.989C530.872 123.859 532.15 125.083 533.13 126.661C534.109 128.184 534.598 130.197 534.598 132.699C534.598 135.419 533.782 137.84 532.15 139.962C530.518 142.029 528.152 143.661 525.051 144.858C522.005 146.054 518.278 146.653 513.872 146.653Z" fill="white"/>
    </g>
    <defs>
        <linearGradient id="paint0_linear_13364_22886" x1="138" y1="-81.9998" x2="1649.35" y2="475.965" gradientUnits="userSpaceOnUse">
            <stop stop-color="#200035"/>
            <stop offset="1" stop-color="#8300AF"/>
        </linearGradient>
    </defs>
</svg>

