<svg width="32" height="28" viewBox="0 0 32 28" fill="none" xmlns="http://www.w3.org/2000/svg">
    <mask id="path-1-inside-1_4845_21103" fill="white">
        <rect x="2.43359" y="6.875" width="27.3896" height="5.87222" rx="1"/>
    </mask>
    <rect x="2.43359" y="6.875" width="27.3896" height="5.87222" rx="1" stroke="#446DFD" stroke-width="4" mask="url(#path-1-inside-1_4845_21103)"/>
    <mask id="path-2-inside-2_4845_21103" fill="white">
        <rect x="2.43359" y="21.8438" width="27.3895" height="5.96827" rx="1"/>
    </mask>
    <rect x="2.43359" y="21.8438" width="27.3895" height="5.96827" rx="1" stroke="#446DFD" stroke-width="4" mask="url(#path-2-inside-2_4845_21103)"/>
    <rect x="6.33984" y="22.8125" width="10.9967" height="4.16811" transform="rotate(-90 6.33984 22.8125)" stroke="#446DFD" stroke-width="2"/>
    <rect x="14.3008" y="22.8125" width="10.9977" height="4.20464" transform="rotate(-90 14.3008 22.8125)" stroke="#446DFD" stroke-width="2"/>
    <rect x="22.3086" y="22.8125" width="10.9977" height="4.33304" transform="rotate(-90 22.3086 22.8125)" stroke="#446DFD" stroke-width="2"/>
    <path d="M15.6374 1.22055C15.9499 1.08026 16.3075 1.08026 16.6201 1.22055L30.8314 7.59906C30.9298 7.6432 30.8983 7.79029 30.7905 7.79029H1.46701C1.35921 7.79029 1.32771 7.6432 1.42606 7.59906L15.6374 1.22055Z" stroke="#446DFD" stroke-width="2"/>
</svg>
