<svg width="36" height="33" viewBox="0 0 36 33" fill="none" xmlns="http://www.w3.org/2000/svg">
    <path d="M36 22.333C36 17.5229 32.4643 13.3204 27.4785 12.054C27.1651 5.35867 21.1259 0 13.7461 0C6.16635 0 0 5.65249 0 12.6006C0 14.7376 0.585603 16.8214 1.70094 18.676C1.82857 18.8883 1.86631 19.1373 1.79583 19.3709L0.355802 24.143C0.221397 24.5884 0.668232 24.998 1.15413 24.8748L6.36032 23.555C6.61512 23.4904 6.88679 23.525 7.11831 23.642C8.96843 24.5767 11.028 25.1042 13.1495 25.1881C14.5308 29.7587 19.1157 33 24.3633 33C26.3651 33 28.3142 32.5329 30.0451 31.6434C30.199 31.5644 30.3804 31.5414 30.5504 31.5845L34.8456 32.6736C35.3315 32.7968 35.7783 32.3872 35.6439 31.9418L34.4559 28.0046C34.4088 27.8487 34.4339 27.6824 34.5201 27.5414C35.4905 25.9547 36 24.168 36 22.333ZM7.59633 21.6468C7.27462 21.4659 6.88541 21.4156 6.52166 21.5078L3.62774 22.2417C3.38479 22.3033 3.16135 22.0985 3.22856 21.8757L3.9999 19.3198C4.11865 18.9263 4.04503 18.505 3.79817 18.1651C2.60478 16.4536 2.10938 14.6419 2.10938 12.6006C2.10938 6.71873 7.32953 1.93359 13.7461 1.93359C20.1627 1.93359 25.3828 6.71873 25.3828 12.6006C25.3828 18.4824 20.1627 23.2676 13.7461 23.2676C11.5192 23.2676 9.46373 22.7407 7.59633 21.6468ZM32.7714 29.6745C32.8386 29.8972 32.6152 30.1021 32.3722 30.0405L30.3668 29.5318C30.098 29.4637 29.8102 29.5045 29.5764 29.6439L29.5461 29.662C28.0033 30.5807 26.2109 31.0664 24.3633 31.0664C20.239 31.0664 16.6149 28.622 15.3309 25.1168C21.6464 24.4494 26.6721 19.8425 27.4005 14.053C31.224 15.2303 33.8906 18.5524 33.8906 22.333C33.8906 24.0267 33.3608 25.6697 32.3586 27.0839L32.3388 27.1117C32.1867 27.326 32.1422 27.5898 32.2166 27.8363L32.7714 29.6745Z" fill="white"/>
    <path d="M12.1289 15.1905C12.1289 15.7754 12.5262 16.1617 13.1282 16.1617C13.7422 16.1617 14.0552 15.8306 14.1515 15.2015C14.2839 14.0317 14.5729 13.6565 16.0296 12.5749C17.7031 11.3389 18.3773 10.3788 18.3773 8.97717C18.3773 6.71477 16.4029 5.20283 13.5375 5.20283C12.1048 5.20283 10.949 5.54495 10.1063 6.20711C9.26352 6.88031 8.74583 7.78527 8.74583 8.59091C8.74583 9.0765 9.05885 9.40758 9.57654 9.40758C10.022 9.40758 10.2628 9.21996 10.5397 8.66816C11.1537 7.38797 12.0807 6.82513 13.5495 6.82513C15.1508 6.82513 16.2584 7.7632 16.2584 8.97717C16.2584 10.0256 15.7648 10.6215 14.4404 11.6038C12.5623 13.0053 12.1289 13.7006 12.1289 15.1905ZM11.8038 19.5497C11.8038 20.245 12.4178 20.7968 13.1884 20.7968C13.9468 20.7968 14.5729 20.245 14.5729 19.5497C14.5729 18.8434 13.9468 18.2916 13.1884 18.2916C12.4178 18.2916 11.8038 18.8434 11.8038 19.5497Z" fill="white"/>
</svg>
