<svg width="20" height="20" viewBox="0 0 20 20" fill="none" xmlns="http://www.w3.org/2000/svg">
    <path d="M10 0.375002C4.68477 0.375001 0.374999 4.68477 0.374998 10C0.374997 15.3152 4.68476 19.625 10 19.625C15.3152 19.625 19.625 15.3152 19.625 10C19.625 4.68477 15.3152 0.375003 10 0.375002ZM10 17.9922C5.58711 17.9922 2.00781 14.4129 2.00781 10C2.00781 5.58711 5.58711 2.00781 10 2.00781C14.4129 2.00781 17.9922 5.58711 17.9922 10C17.9922 14.4129 14.4129 17.9922 10 17.9922Z" fill="#3176DE"/>
    <path d="M8.96841 6.21875C8.96841 6.49226 9.07706 6.75456 9.27046 6.94796C9.46386 7.14135 9.72616 7.25 9.99966 7.25C10.2732 7.25 10.5355 7.14135 10.7289 6.94796C10.9223 6.75456 11.0309 6.49226 11.0309 6.21875C11.0309 5.94525 10.9223 5.68294 10.7289 5.48955C10.5355 5.29615 10.2732 5.1875 9.99966 5.1875C9.72616 5.1875 9.46386 5.29615 9.27046 5.48955C9.07706 5.68294 8.96841 5.94525 8.96841 6.21875ZM10.5153 8.625L9.48404 8.625C9.38951 8.625 9.31216 8.70235 9.31216 8.79688L9.31216 14.6406C9.31216 14.7352 9.38951 14.8125 9.48404 14.8125L10.5153 14.8125C10.6098 14.8125 10.6872 14.7352 10.6872 14.6406L10.6872 8.79688C10.6872 8.70235 10.6098 8.625 10.5153 8.625Z" fill="#3176DE"/>
</svg>
