<svg width="12" height="6" viewBox="0 0 12 6" fill="none" xmlns="http://www.w3.org/2000/svg">
<path d="M0.134344 0.773611L5.32493 5.86065C5.4161 5.95 5.53838 6 5.66569 6C5.79301 6 5.91529 5.95 6.00646 5.86065L11.199 0.773611C11.2415 0.731992 11.2753 0.682231 11.2984 0.627266C11.3214 0.572301 11.3333 0.513246 11.3333 0.453586C11.3333 0.393925 11.3214 0.334869 11.2984 0.279904C11.2753 0.224939 11.2415 0.175179 11.199 0.133559C11.1118 0.0479355 10.9948 -4.80596e-07 10.8729 -4.75268e-07C10.751 -4.69941e-07 10.6339 0.0479355 10.5468 0.133559L5.66569 4.91726L0.785607 0.13356C0.698461 0.0482297 0.581622 0.000479196 0.459976 0.000479201C0.338329 0.000479207 0.22149 0.0482297 0.134344 0.13356C0.0918276 0.175179 0.0580353 0.224939 0.0349614 0.279904C0.0118875 0.334869 -2.45049e-07 0.393926 -2.42441e-07 0.453586C-2.39834e-07 0.513246 0.0118875 0.572301 0.0349614 0.627267C0.0580353 0.682232 0.0918277 0.731992 0.134344 0.773611Z" fill="#446DFD"/>
</svg>
