<svg width="21" height="18" viewBox="0 0 21 18" fill="none" xmlns="http://www.w3.org/2000/svg">
    <path fill-rule="evenodd" clip-rule="evenodd" d="M12.3252 1.54977C10.8339 1.14175 9.2517 1.21824 7.80649 1.76823C6.36127 2.31822 5.12754 3.31335 4.28288 4.61037C4.08839 4.90902 3.68903 4.99319 3.39089 4.79838C3.09274 4.60357 3.0087 4.20354 3.20319 3.9049C4.19692 2.37898 5.64838 1.20823 7.34865 0.561174C9.04892 -0.0858803 10.9103 -0.17587 12.6649 0.304158C14.4195 0.784186 15.9767 1.80947 17.1126 3.23244C17.9231 4.24788 18.4892 5.42845 18.7765 6.68277L19.7971 4.912C19.9751 4.6032 20.3693 4.4974 20.6776 4.67569C20.9859 4.85397 21.0915 5.24883 20.9135 5.55762L19.04 8.80815C18.862 9.11695 18.4678 9.22275 18.1595 9.04446L14.9144 7.16777C14.6061 6.98949 14.5005 6.59463 14.6784 6.28583C14.8564 5.97704 15.2506 5.87124 15.5589 6.04952L17.5711 7.21321C17.347 6.05717 16.8465 4.96684 16.1057 4.03879C15.1403 2.82928 13.8166 1.95779 12.3252 1.54977ZM1.96004 9.19185C2.13802 8.88305 2.53222 8.77725 2.8405 8.95554L6.08563 10.8322C6.39391 11.0105 6.49954 11.4054 6.32155 11.7142C6.14356 12.023 5.74936 12.1288 5.44108 11.9505L3.42865 10.7867C3.65272 11.9428 4.15329 13.0331 4.89409 13.9612C5.85953 15.1707 7.1832 16.0422 8.67457 16.4502C10.1659 16.8582 11.7481 16.7818 13.1933 16.2318C14.6385 15.6818 15.8723 14.6866 16.7169 13.3896C16.9114 13.091 17.3108 13.0068 17.6089 13.2016C17.9071 13.3964 17.9911 13.7965 17.7966 14.0951C16.8029 15.621 15.3514 16.7918 13.6512 17.4388C11.9509 18.0859 10.0895 18.1759 8.33492 17.6958C6.58034 17.2158 5.02307 16.1905 3.88724 14.7676C3.07677 13.7522 2.51071 12.5717 2.22337 11.3175L1.20285 13.088C1.02486 13.3968 0.630663 13.5026 0.322381 13.3243C0.014099 13.146 -0.0915262 12.7512 0.0864606 12.4424L1.96004 9.19185Z" fill="#3176DE"/>
</svg>
