<svg width="16" height="18" viewBox="0 0 16 18" fill="none" xmlns="http://www.w3.org/2000/svg">
    <path fill-rule="evenodd" clip-rule="evenodd" d="M12.248 0.991024L1.55155 8.05341C0.0446466 9.04835 0.609084 11.3832 2.40407 11.5799L6.94236 12.0773C7.47975 12.1362 7.96775 12.4179 8.28745 12.8539L10.9875 16.5356C12.0553 17.9917 14.3596 17.3131 14.4678 15.5106L15.2358 2.71599C15.331 1.12961 13.5743 0.115374 12.248 0.991024ZM12.8294 2.14784L2.25997 9.12636C1.75766 9.458 1.94581 10.2363 2.54414 10.3019L7.08243 10.7992C7.31147 10.8243 7.53513 10.8737 7.75009 10.9455L12.8294 2.14784ZM8.86357 11.5883C9.03327 11.7386 9.18794 11.9077 9.32424 12.0935L12.0243 15.7753C12.3802 16.2606 13.1483 16.0344 13.1844 15.4336L13.9433 2.78998L8.86357 11.5883Z" fill="#3176DE"/>
</svg>
