<svg width="21" height="23" viewBox="0 0 21 23" fill="#FFFFFF" xmlns="http://www.w3.org/2000/svg">
    <path d="M15.2834 8.25459C15.5595 7.7763 15.3957 7.16471 14.9174 6.88857C14.4391 6.61243 13.8275 6.7763 13.5514 7.25459L15.2834 8.25459ZM16.1662 1.1544L15.6122 0.321892L16.1662 1.1544ZM15.6122 0.321892L1.59282 9.65159L2.70086 11.3166L16.7202 1.9869L15.6122 0.321892ZM3.03539 15.1411L10.3458 15.6774L10.4921 13.6827L3.18171 13.1464L3.03539 15.1411ZM9.59345 15.2444L13.7742 21.3596L15.4253 20.2309L11.2445 14.1157L9.59345 15.2444ZM19.2453 19.8484L20.2687 3.00133L18.2724 2.88005L17.2489 19.7271L19.2453 19.8484ZM11.285 15.18L15.2834 8.25459L13.5514 7.25459L9.55294 14.18L11.285 15.18ZM13.7742 21.3596C15.387 23.7185 19.072 22.7006 19.2453 19.8484L17.2489 19.7271C17.1912 20.6779 15.9628 21.0172 15.4253 20.2309L13.7742 21.3596ZM1.59282 9.65159C-0.785988 11.2347 0.185627 14.932 3.03539 15.1411L3.18171 13.1464C2.2318 13.0767 1.90792 11.8443 2.70086 11.3166L1.59282 9.65159ZM16.7202 1.9869C17.4079 1.52925 18.3225 2.05551 18.2724 2.88005L20.2687 3.00133C20.419 0.527726 17.6753 -1.05106 15.6122 0.321892L16.7202 1.9869Z" fill="#A1A4B8"/>
</svg>
